<?xml version="1.0" encoding="UTF-8"?>
<svg xmlns="http://www.w3.org/2000/svg" width="20" height="20" viewBox="0 0 20 20">
	<g fill-rule="evenodd" stroke-dasharray="none" stroke-linejoin="miter" stroke-miterlimit="4" transform="translate(0 -1032.362)">
		<path fill="#aaa" fill-opacity="1" stroke="none" stroke-linecap="butt" stroke-opacity="0" stroke-width="2.25" d="M10 1034.362a8 8 0 0 0-8 8 8 8 0 0 0 8 8 8 8 0 0 0 8-8 8 8 0 0 0-8-8zm0 2a6 6 0 0 1 6 6 6 6 0 0 1-6 6 6 6 0 0 1-6-6 6 6 0 0 1 6-6z" opacity="1"/>
		<path fill="none" stroke="#aaa" stroke-linecap="round" stroke-opacity="1" stroke-width="2" d="M10 1038.362v4h2"/>
	</g>
</svg>
